<svg class="svg-icon" style="width: 1em; height: 1em;vertical-align: middle;fill: #fff;overflow: hidden;" viewBox="0 0 1024 1024" version="1.1" xmlns="http://www.w3.org/2000/svg"><path d="M847.732364 237.521455 129.675636 237.521455c-4.840727 0-8.750545 3.909818-8.750545 8.750545l0 17.501091c0 4.840727 3.909818 8.750545 8.750545 8.750545l718.056727 0c4.840727 0 8.750545-3.909818 8.750545-8.750545L856.482909 246.318545C856.529455 241.477818 852.573091 237.521455 847.732364 237.521455zM847.732364 517.771636 129.675636 517.771636c-4.840727 0-8.750545 3.909818-8.750545 8.750545l0 17.501091c0 4.840727 3.909818 8.750545 8.750545 8.750545l718.056727 0c4.840727 0 8.750545-3.909818 8.750545-8.750545l0-17.501091C856.529455 521.681455 852.573091 517.771636 847.732364 517.771636zM847.732364 797.975273 129.722182 797.975273c-4.840727 0-8.750545 3.909818-8.750545 8.750545l0 17.501091c0 4.840727 3.909818 8.750545 8.750545 8.750545l718.056727 0c4.840727 0 8.750545-3.909818 8.750545-8.750545l0-17.501091C856.529455 801.885091 852.573091 797.975273 847.732364 797.975273z"  /></svg>