<?xml version="1.0" standalone="no"?>
<!DOCTYPE svg PUBLIC "-//W3C//DTD SVG 20010904//EN"
 "http://www.w3.org/TR/2001/REC-SVG-20010904/DTD/svg10.dtd">
<svg version="1.0" xmlns="http://www.w3.org/2000/svg"
 width="273.000000pt" height="273.000000pt" viewBox="0 0 273.000000 273.000000"
 preserveAspectRatio="xMidYMid meet">
<metadata>
Created by potrace 1.14, written by Peter Selinger 2001-2017
</metadata>
<g transform="translate(0.000000,273.000000) scale(0.100000,-0.100000)"
fill="#000000" stroke="none">
<path d="M2245 2698 c-16 -12 -61 -47 -100 -78 -38 -31 -83 -64 -100 -75 -16
-10 -35 -24 -42 -30 -6 -7 -56 -45 -110 -85 -138 -104 -185 -139 -378 -286
-93 -70 -208 -157 -255 -192 -103 -76 -133 -99 -174 -133 -17 -14 -76 -59
-131 -100 -55 -41 -194 -147 -310 -235 -115 -88 -236 -178 -267 -199 -32 -22
-57 -43 -58 -48 0 -6 280 134 305 153 6 4 49 29 97 55 l88 46 0 -138 0 -139
40 -39 40 -39 0 -341 0 -340 94 -94 93 -93 1 134 c0 73 1 138 2 143 1 6 1 23
0 38 -6 92 -4 417 3 417 5 0 5 5 2 10 -6 10 -10 382 -5 405 1 6 2 12 1 15 -7
18 -7 71 -1 75 4 2 4 23 0 45 -4 22 -5 40 -1 40 3 0 22 15 42 33 20 17 51 43
69 57 18 14 38 30 45 35 6 6 18 15 27 20 8 6 62 47 119 93 57 46 171 136 253
200 82 64 181 143 220 175 39 32 106 85 149 118 54 42 86 76 105 111 15 27 55
94 88 147 63 101 87 141 82 141 -2 0 -16 -10 -33 -22z"/>
<path d="M2064 2102 c-16 -15 -71 -62 -120 -105 l-90 -78 1 -247 c0 -136 -3
-254 -7 -263 -4 -9 -76 -72 -160 -139 -84 -68 -157 -128 -163 -134 -5 -7 -38
-33 -72 -59 -35 -27 -63 -51 -63 -55 0 -10 984 -1002 995 -1002 5 0 1 8 -8 18
-10 9 -59 80 -110 157 -50 77 -94 142 -98 145 -3 3 -9 12 -12 20 -10 21 -35
59 -159 248 -60 89 -108 166 -108 172 0 5 -3 10 -8 10 -4 0 -16 17 -27 37 -11
20 -25 41 -30 47 -6 6 -30 42 -54 80 l-45 68 31 27 c16 14 42 35 58 46 69 50
125 97 125 105 0 5 8 11 18 14 10 4 32 19 48 34 16 15 48 42 71 60 l42 33 0
394 c0 296 -3 395 -12 395 -7 0 -26 -13 -43 -28z"/>
</g>
</svg>
